<svg xmlns="http://www.w3.org/2000/svg" viewBox="0 0 20 20">
  <defs>
    <style>
      .cls-1 {
        fill: #a9a8a8;
        fill-rule: evenodd;
      }
    </style>
  </defs>
  <path id="ico" class="cls-1" d="M14.672,12.746l4.849,4.868L17.614,19.52l-4.849-4.849a7.925,7.925,0,0,1-4.478,1.423A7.521,7.521,0,0,1,2.771,13.8,7.52,7.52,0,0,1,.48,8.287,7.521,7.521,0,0,1,2.771,2.771,7.521,7.521,0,0,1,8.287.48,7.521,7.521,0,0,1,13.8,2.771,7.521,7.521,0,0,1,16.1,8.287,7.77,7.77,0,0,1,14.672,12.746Zm-2.415-.489a5.649,5.649,0,0,0,1.469-3.969,5.446,5.446,0,0,0-1.469-3.88,5.718,5.718,0,0,0-3.97-1.577,5.588,5.588,0,0,0-3.93,1.527A5.587,5.587,0,0,0,2.83,8.287a5.67,5.67,0,0,0,1.527,3.969,5.654,5.654,0,0,0,3.93,1.567A5.739,5.739,0,0,0,12.257,12.257Z"/>
</svg>
