<svg xmlns="http://www.w3.org/2000/svg" viewBox="0 0 1000 1000">
  <defs>
    <style>
      .cls-1 {
        fill: #d7d7d7;
        fill-rule: evenodd;
      }
    </style>
  </defs>
  <path id="twi_ico" class="cls-1" d="M992.053,206.275a413.753,413.753,0,0,1-115.847,30.636c41.643-24.078,73.623-62.237,88.682-107.669A412.9,412.9,0,0,1,836.81,176.459C800.026,138.621,747.584,115,689.576,115c-111.38,0-201.7,87.126-201.7,194.628a188.287,188.287,0,0,0,5.229,44.325C325.489,345.878,176.862,268.393,77.4,150.619a188.531,188.531,0,0,0-27.328,97.85c0,67.534,35.62,127.081,89.732,162a206.255,206.255,0,0,1-91.348-24.364c-0.016.821-.016,1.642-0.016,2.44,0,94.314,69.521,173,161.788,190.9a208.836,208.836,0,0,1-91.087,3.285C144.812,660.1,219.3,716.34,307.557,717.911c-69.031,52.18-155.994,83.34-250.5,83.34A425.11,425.11,0,0,1,8.943,798.5c89.259,55.251,195.28,87.471,309.191,87.471C689.108,885.973,892,589.377,892,332.2q0-12.695-.588-25.186A402.815,402.815,0,0,0,992.053,206.275"/>
</svg>
