<svg xmlns="http://www.w3.org/2000/svg" viewBox="0 0 1000 1000">
  <defs>
    <style>
      .cls-1 {
        fill: #4bb8f0;
        fill-rule: evenodd;
      }
    </style>
  </defs>
  <path id="twi" class="cls-1" d="M992.052,205.487a412.968,412.968,0,0,1-115.847,30.74c41.643-24.141,73.623-62.4,88.682-108a411.377,411.377,0,0,1-128.078,47.351c-36.784-37.9-89.226-61.564-147.234-61.564-111.38,0-201.7,87.352-201.7,195.145a189.514,189.514,0,0,0,5.229,44.428C325.488,345.464,176.861,267.778,77.4,149.7A189.471,189.471,0,0,0,50.068,247.79c0,67.722,35.62,127.424,89.732,162.436a206.741,206.741,0,0,1-91.348-24.392c-0.016.812-.016,1.623-0.016,2.435,0,94.535,69.521,173.438,161.788,191.373a208.687,208.687,0,0,1-91.087,3.33c25.675,77.506,100.162,133.963,188.42,135.5-69.03,52.316-155.993,83.509-250.5,83.509a421.218,421.218,0,0,1-48.111-2.721,584.7,584.7,0,0,0,309.191,87.722c370.974,0,573.861-297.377,573.861-555.207,0-8.5-.191-16.886-0.588-25.287a401.778,401.778,0,0,0,100.646-101"/>
</svg>
